<svg xmlns="http://www.w3.org/2000/svg" width="200" height="280" viewBox="0 0 200 280">
  <defs>
    <linearGradient id="bg" x1="0%" y1="0%" x2="100%" y2="100%">
      <stop offset="0%" style="stop-color:#1a1a2e"/>
      <stop offset="100%" style="stop-color:#16213e"/>
    </linearGradient>
    <linearGradient id="accent" x1="0%" y1="0%" x2="100%" y2="100%">
      <stop offset="0%" style="stop-color:#6366f1"/>
      <stop offset="100%" style="stop-color:#8b5cf6"/>
    </linearGradient>
  </defs>
  <rect width="200" height="280" fill="url(#bg)"/>
  <rect x="20" y="100" width="160" height="4" rx="2" fill="url(#accent)"/>
  <rect x="40" y="115" width="120" height="3" rx="1.5" fill="#444"/>
  <rect x="50" y="125" width="100" height="3" rx="1.5" fill="#333"/>
  <g transform="translate(100, 60)">
    <circle cx="0" cy="0" r="30" fill="url(#accent)" opacity="0.2"/>
    <path d="M-15 -5 L-15 15 Q-15 18 -12 18 L12 18 Q15 18 15 15 L15 -5 Q15 -8 12 -8 L-12 -8 Q-15 -8 -15 -5 M-10 -8 L-10 -15 Q-10 -18 -7 -18 L7 -18 Q10 -18 10 -15 L10 -8" fill="none" stroke="url(#accent)" stroke-width="2.5" stroke-linecap="round"/>
    <line x1="-8" y1="2" x2="8" y2="2" stroke="url(#accent)" stroke-width="2"/>
    <line x1="-8" y1="8" x2="8" y2="8" stroke="url(#accent)" stroke-width="2"/>
    <line x1="-8" y1="14" x2="3" y2="14" stroke="url(#accent)" stroke-width="2"/>
  </g>
  <text x="100" y="180" text-anchor="middle" fill="#666" font-family="Arial, sans-serif" font-size="14" font-weight="600">No Cover</text>
  <text x="100" y="200" text-anchor="middle" fill="#444" font-family="Arial, sans-serif" font-size="11">Available</text>
</svg>
